<svg width="20" height="20" viewBox="0 0 20 20" fill="none" xmlns="http://www.w3.org/2000/svg">
<mask id="mask0_2_282" style="mask-type:alpha" maskUnits="userSpaceOnUse" x="0" y="0" width="20" height="20">
<path fill-rule="evenodd" clip-rule="evenodd" d="M19 4H17V13H4V15C4 15.55 4.45 16 5 16H16L20 20V5C20 4.45 19.55 4 19 4ZM15 10V1C15 0.45 14.55 0 14 0H1C0.45 0 0 0.45 0 1V15L4 11H14C14.55 11 15 10.55 15 10Z" fill="white"/>
</mask>
<g mask="url(#mask0_2_282)">
<g filter="url(#filter0_d_2_282)">
<rect x="-3" y="-3" width="26" height="26" fill="#191919"/>
</g>
</g>
<defs>
<filter id="filter0_d_2_282" x="-7" y="-3" width="34" height="34" filterUnits="userSpaceOnUse" color-interpolation-filters="sRGB">
<feFlood flood-opacity="0" result="BackgroundImageFix"/>
<feColorMatrix in="SourceAlpha" type="matrix" values="0 0 0 0 0 0 0 0 0 0 0 0 0 0 0 0 0 0 127 0" result="hardAlpha"/>
<feOffset dy="4"/>
<feGaussianBlur stdDeviation="2"/>
<feComposite in2="hardAlpha" operator="out"/>
<feColorMatrix type="matrix" values="0 0 0 0 0 0 0 0 0 0 0 0 0 0 0 0 0 0 0.25 0"/>
<feBlend mode="normal" in2="BackgroundImageFix" result="effect1_dropShadow_2_282"/>
<feBlend mode="normal" in="SourceGraphic" in2="effect1_dropShadow_2_282" result="shape"/>
</filter>
</defs>
</svg>
